<svg xmlns="http://www.w3.org/2000/svg" viewBox="0 0 150 103">
<g fill="#000000" stroke="none">
<path d="M 0.00,0.50 L 2.00,0.50 L 4.00,0.50 L 6.00,0.50 L 8.00,0.50 L 10.00,0.50 L 12.00,0.50 L 14.00,0.50 L 16.00,0.50 L 17.50,1.00 L 17.50,3.00 L 17.50,5.00 L 17.50,7.00 L 17.50,9.00 L 17.50,11.00 L 17.50,13.00 L 17.50,15.00 L 17.50,17.00 L 17.50,19.00 L 17.50,21.00 L 18.00,22.50 L 20.00,22.50 L 22.00,22.50 L 24.00,22.50 L 26.00,22.50 L 26.50,21.00 L 26.50,19.00 L 26.50,17.00 L 26.50,15.00 L 26.50,13.00 L 26.50,11.00 L 26.50,9.00 L 26.50,7.00 L 26.50,5.00 L 26.50,3.00 L 26.50,1.00 L 28.00,0.50 L 30.00,0.50 L 32.00,0.50 L 34.00,0.50 L 36.00,0.50 L 38.00,0.50 L 40.00,0.50 L 42.00,0.50 L 44.00,0.50 L 44.50,2.00 L 44.50,4.00 L 44.50,6.00 L 44.50,8.00 L 44.50,10.00 L 44.50,12.00 L 44.50,14.00 L 44.50,16.00 L 44.50,18.00 L 44.50,20.00 L 44.50,22.00 L 44.50,24.00 L 44.50,26.00 L 44.50,28.00 L 44.50,30.00 L 44.50,32.00 L 44.50,34.00 L 44.50,36.00 L 44.50,38.00 L 44.50,40.00 L 44.50,42.00 L 44.50,44.00 L 44.50,46.00 L 44.50,48.00 L 44.50,50.00 L 44.50,52.00 L 44.50,54.00 L 44.50,56.00 L 44.50,58.00 L 44.50,60.00 L 44.00,61.50 L 43.00,62.50 L 41.00,62.50 L 39.00,62.50 L 37.00,62.50 L 35.00,62.50 L 33.00,62.50 L 31.00,62.50 L 29.00,62.50 L 27.50,62.00 L 26.50,61.00 L 26.50,59.00 L 26.50,57.00 L 26.50,55.00 L 26.50,53.00 L 26.50,51.00 L 26.50,49.00 L 26.50,47.00 L 26.50,45.00 L 26.50,43.00 L 26.50,41.00 L 26.50,39.00 L 25.00,38.50 L 23.00,38.50 L 21.00,38.50 L 19.00,38.50 L 17.50,39.00 L 17.50,41.00 L 17.50,43.00 L 17.50,45.00 L 17.50,47.00 L 17.50,49.00 L 17.50,51.00 L 17.50,53.00 L 17.50,55.00 L 17.50,57.00 L 17.50,59.00 L 17.50,61.00 L 16.00,61.50 L 14.00,61.50 L 12.00,61.50 L 10.00,61.50 L 8.00,61.50 L 6.00,61.50 L 4.00,61.50 L 2.00,61.50 L 0.00,61.50 Z"/>
<path d="M 149.00,39.50 L 148.50,41.00 L 148.00,42.50 L 147.50,44.00 L 146.50,45.00 L 146.00,46.50 L 145.00,47.50 L 144.50,49.00 L 143.50,50.00 L 142.50,51.00 L 141.50,52.00 L 140.50,53.00 L 139.50,54.00 L 138.50,55.00 L 137.50,56.00 L 136.50,57.00 L 135.00,57.50 L 134.00,58.50 L 132.50,59.00 L 131.00,59.50 L 130.00,60.50 L 128.00,60.50 L 127.00,61.50 L 125.00,61.50 L 123.50,62.00 L 122.00,62.50 L 120.00,62.50 L 118.00,62.50 L 116.00,62.50 L 114.00,62.50 L 113.00,61.50 L 111.00,61.50 L 109.50,61.00 L 108.00,60.50 L 106.50,60.00 L 105.00,59.50 L 104.00,58.50 L 102.50,58.00 L 101.50,57.00 L 100.00,56.50 L 99.00,55.50 L 98.00,54.50 L 97.00,53.50 L 96.00,52.50 L 95.00,51.50 L 94.00,50.50 L 93.50,49.00 L 92.50,48.00 L 91.50,48.00 L 90.50,49.00 L 90.50,51.00 L 89.50,52.00 L 89.00,53.50 L 88.00,54.50 L 87.00,55.50 L 86.00,56.50 L 85.00,57.50 L 84.00,58.50 L 83.00,59.50 L 81.50,60.00 L 80.00,60.50 L 79.00,61.50 L 77.00,61.50 L 75.00,61.50 L 74.00,62.50 L 72.00,62.50 L 70.00,62.50 L 68.00,62.50 L 66.00,62.50 L 64.00,62.50 L 62.00,62.50 L 60.00,62.50 L 58.00,62.50 L 56.00,62.50 L 54.00,62.50 L 52.00,62.50 L 50.00,62.50 L 48.00,62.50 L 47.00,61.50 L 46.50,60.00 L 46.50,58.00 L 46.50,56.00 L 46.50,54.00 L 46.50,52.00 L 46.50,50.00 L 46.50,48.00 L 46.50,46.00 L 46.50,44.00 L 46.50,42.00 L 46.50,40.00 L 46.50,38.00 L 46.50,36.00 L 46.50,34.00 L 46.50,32.00 L 46.50,30.00 L 46.50,28.00 L 46.50,26.00 L 46.50,24.00 L 46.50,22.00 L 46.50,20.00 L 46.50,18.00 L 46.50,16.00 L 46.50,14.00 L 46.50,12.00 L 46.50,10.00 L 46.50,8.00 L 46.50,6.00 L 46.50,4.00 L 46.50,2.00 L 47.00,0.50 L 49.00,0.50 L 51.00,0.50 L 53.00,0.50 L 55.00,0.50 L 57.00,0.50 L 59.00,0.50 L 61.00,0.50 L 63.00,0.50 L 65.00,0.50 L 67.00,0.50 L 69.00,0.50 L 71.00,0.50 L 73.00,0.50 L 75.00,0.50 L 77.00,0.50 L 79.00,0.50 L 80.00,1.50 L 82.00,1.50 L 83.00,2.50 L 84.00,3.50 L 85.00,4.50 L 86.50,5.00 L 87.00,6.50 L 88.00,7.50 L 89.00,8.50 L 89.50,10.00 L 90.50,11.00 L 91.00,12.50 L 91.50,14.00 L 92.50,14.00 L 93.00,12.50 L 94.00,11.50 L 94.50,10.00 L 95.50,9.00 L 96.50,8.00 L 97.50,7.00 L 99.00,6.50 L 100.00,5.50 L 101.00,4.50 L 102.00,3.50 L 103.50,3.00 L 105.00,2.50 L 106.00,1.50 L 107.50,1.00 L 109.00,0.50 L 110.50,0.00 Z"/>
<path d="M 126.50,0.00 L 128.00,0.50 L 129.50,1.00 L 131.00,1.50 L 132.50,2.00 L 134.00,2.50 L 135.00,3.50 L 136.00,4.50 L 137.50,5.00 L 138.50,6.00 L 139.50,7.00 L 140.50,8.00 L 141.50,9.00 L 142.50,10.00 L 143.50,11.00 L 144.50,12.00 L 145.00,13.50 L 146.00,14.50 L 146.50,16.00 L 147.50,17.00 L 148.00,18.50 L 148.50,20.00 L 149.00,21.50 Z"/>
<path d="M 73.50,23.00 L 74.00,21.50 L 74.50,20.00 L 74.50,18.00 L 74.00,16.50 L 73.00,15.50 L 71.50,15.00 L 70.00,14.50 L 68.00,14.50 L 66.00,14.50 L 64.00,14.50 L 63.50,16.00 L 63.50,18.00 L 63.50,20.00 L 63.50,22.00 L 64.00,23.50 L 66.00,23.50 L 68.00,23.50 L 70.00,23.50 L 72.00,23.50 L 73.50,23.00 Z"/>
<path d="M 121.50,45.00 L 123.00,44.50 L 124.50,44.00 L 126.00,43.50 L 127.00,42.50 L 128.50,42.00 L 129.50,41.00 L 130.50,40.00 L 131.00,38.50 L 131.50,37.00 L 132.50,36.00 L 133.00,34.50 L 133.50,33.00 L 133.50,31.00 L 133.50,29.00 L 133.50,27.00 L 132.50,26.00 L 132.00,24.50 L 131.50,23.00 L 130.50,22.00 L 129.50,21.00 L 129.00,19.50 L 127.50,19.00 L 126.50,18.00 L 125.00,17.50 L 124.00,16.50 L 122.00,16.50 L 121.00,15.50 L 119.00,15.50 L 117.00,15.50 L 116.00,16.50 L 114.00,16.50 L 112.50,17.00 L 111.00,17.50 L 110.00,18.50 L 109.00,19.50 L 108.00,20.50 L 107.00,21.50 L 106.50,23.00 L 105.50,24.00 L 105.00,25.50 L 104.50,27.00 L 104.50,29.00 L 104.50,31.00 L 104.50,33.00 L 104.50,35.00 L 105.50,36.00 L 106.00,37.50 L 106.50,39.00 L 107.50,40.00 L 108.50,41.00 L 109.50,42.00 L 110.50,43.00 L 112.00,43.50 L 113.00,44.50 L 115.00,44.50 L 116.00,45.50 L 118.00,45.50 L 120.00,45.50 L 121.50,45.00 Z"/>
<path d="M 121.00,43.50 L 119.00,43.50 L 117.00,43.50 L 115.50,43.00 L 114.00,42.50 L 113.00,41.50 L 111.50,41.00 L 110.50,40.00 L 109.50,39.00 L 108.50,38.00 L 107.50,37.00 L 107.00,35.50 L 106.50,34.00 L 106.50,32.00 L 106.50,30.00 L 106.50,28.00 L 106.50,26.00 L 107.50,25.00 L 108.00,23.50 L 109.00,22.50 L 110.00,21.50 L 111.00,20.50 L 112.00,19.50 L 113.50,19.00 L 115.00,18.50 L 116.50,18.00 L 118.00,17.50 L 120.00,17.50 L 121.50,18.00 L 123.00,18.50 L 124.50,19.00 L 125.50,20.00 L 127.00,20.50 L 128.00,21.50 L 128.50,23.00 L 129.50,24.00 L 130.50,25.00 L 130.50,27.00 L 131.50,28.00 L 131.50,30.00 L 131.50,32.00 L 131.50,34.00 L 130.50,35.00 L 130.00,36.50 L 129.50,38.00 L 128.50,39.00 L 127.50,40.00 L 126.00,40.50 L 125.00,41.50 L 124.00,42.50 L 122.00,42.50 L 121.00,43.50 Z"/>
<path d="M 87.50,32.00 L 87.50,30.00 L 87.00,28.50 L 86.00,29.50 L 85.00,30.50 L 85.00,31.50 L 86.50,32.00 L 87.50,32.00 Z"/>
<path d="M 72.50,46.00 L 73.50,45.00 L 74.50,44.00 L 74.50,42.00 L 74.50,40.00 L 73.50,39.00 L 72.50,38.00 L 71.00,37.50 L 69.00,37.50 L 67.00,37.50 L 65.00,37.50 L 63.50,38.00 L 63.50,40.00 L 63.50,42.00 L 63.50,44.00 L 63.50,46.00 L 65.00,46.50 L 67.00,46.50 L 69.00,46.50 L 71.00,46.50 L 72.50,46.00 Z"/>
<path d="M 21.50,102.00 L 21.50,100.00 L 21.50,98.00 L 21.50,96.00 L 21.50,94.00 L 21.50,92.00 L 21.50,90.00 L 21.50,88.00 L 21.50,86.00 L 21.50,84.00 L 21.50,82.00 L 21.50,80.00 L 21.50,78.00 L 21.50,76.00 L 21.50,74.00 L 23.00,73.50 L 25.00,73.50 L 27.00,73.50 L 27.50,75.00 L 28.50,76.00 L 29.50,77.00 L 30.00,78.50 L 31.00,79.50 L 31.50,81.00 L 32.50,82.00 L 33.00,83.50 L 34.00,84.50 L 34.50,86.00 L 35.50,87.00 L 36.00,88.50 L 37.00,87.50 L 38.00,86.50 L 38.50,85.00 L 39.50,84.00 L 40.50,83.00 L 41.00,81.50 L 41.50,80.00 L 42.50,79.00 L 43.50,78.00 L 44.00,76.50 L 45.00,75.50 L 45.50,74.00 L 47.00,73.50 L 49.00,73.50 L 51.00,73.50 L 51.50,75.00 L 51.50,77.00 L 51.50,79.00 L 51.50,81.00 L 51.50,83.00 L 51.50,85.00 L 51.50,87.00 L 51.50,89.00 L 51.50,91.00 L 51.50,93.00 L 52.00,94.50 L 53.00,95.50 L 54.00,96.50 L 55.00,97.50 L 57.00,97.50 L 59.00,97.50 L 60.00,96.50 L 61.50,96.00 L 62.50,95.00 L 62.50,93.00 L 63.50,92.00 L 63.50,90.00 L 63.50,88.00 L 63.50,86.00 L 63.50,84.00 L 63.50,82.00 L 63.50,80.00 L 63.50,78.00 L 63.50,76.00 L 63.50,74.00 L 65.00,73.50 L 67.00,73.50 L 68.50,74.00 L 68.50,76.00 L 68.50,78.00 L 68.50,80.00 L 68.50,82.00 L 68.50,84.00 L 68.50,86.00 L 68.50,88.00 L 68.50,90.00 L 68.50,92.00 L 68.50,94.00 L 68.50,96.00 L 67.50,97.00 L 67.00,98.50 L 66.00,99.50 L 65.00,100.50 L 64.00,101.50 L 62.50,102.00 Z"/>
<path d="M 69.50,102.00 L 69.50,100.00 L 69.50,98.00 L 69.50,96.00 L 69.50,94.00 L 69.50,92.00 L 69.50,90.00 L 69.50,88.00 L 69.50,86.00 L 69.50,84.00 L 69.50,82.00 L 69.50,80.00 L 69.50,78.00 L 69.50,76.00 L 70.00,74.50 L 71.00,73.50 L 73.00,73.50 L 75.00,73.50 L 76.00,74.50 L 77.00,75.50 L 77.50,77.00 L 78.50,78.00 L 79.50,79.00 L 80.00,80.50 L 81.00,81.50 L 82.00,82.50 L 82.50,84.00 L 83.50,85.00 L 84.50,86.00 L 85.00,87.50 L 86.00,88.50 L 87.00,89.50 L 87.50,91.00 L 88.50,91.00 L 88.50,89.00 L 88.50,87.00 L 88.50,85.00 L 88.50,83.00 L 88.50,81.00 L 88.50,79.00 L 88.50,77.00 L 88.50,75.00 L 89.00,73.50 L 91.00,73.50 L 93.00,73.50 L 95.00,73.50 L 97.00,73.50 L 99.00,73.50 L 101.00,73.50 L 102.50,74.00 L 104.00,74.50 L 105.50,75.00 L 106.50,76.00 L 108.00,76.50 L 109.00,77.50 L 109.50,79.00 L 110.50,80.00 L 111.50,81.00 L 111.50,83.00 L 112.50,84.00 L 112.50,86.00 L 112.50,88.00 L 112.50,90.00 L 112.50,92.00 L 111.50,93.00 L 111.50,95.00 L 110.50,96.00 L 109.50,97.00 L 109.00,98.50 L 108.00,99.50 L 106.50,100.00 L 105.50,101.00 L 104.00,101.50 L 102.50,102.00 Z"/>
<path d="M 113.50,102.00 L 113.50,100.00 L 113.50,98.00 L 113.50,96.00 L 113.50,94.00 L 113.50,92.00 L 113.50,90.00 L 113.50,88.00 L 113.50,86.00 L 113.50,84.00 L 113.50,82.00 L 113.50,80.00 L 113.50,78.00 L 113.50,76.00 L 113.50,74.00 L 115.00,73.50 L 117.00,73.50 L 118.50,74.00 L 118.50,76.00 L 118.50,78.00 L 118.50,80.00 L 118.50,82.00 L 118.50,84.00 L 118.50,86.00 L 118.50,88.00 L 118.50,90.00 L 118.50,92.00 L 118.50,94.00 L 118.50,96.00 L 118.50,98.00 L 118.50,100.00 L 118.50,102.00 Z"/>
<path d="M 102.50,96.00 L 103.50,95.00 L 104.50,94.00 L 105.50,93.00 L 106.50,92.00 L 106.50,90.00 L 106.50,88.00 L 106.50,86.00 L 106.50,84.00 L 105.50,83.00 L 105.00,81.50 L 104.00,80.50 L 103.00,79.50 L 101.00,79.50 L 100.00,78.50 L 98.00,78.50 L 96.00,78.50 L 94.50,79.00 L 94.50,81.00 L 94.50,83.00 L 94.50,85.00 L 94.50,87.00 L 94.50,89.00 L 94.50,91.00 L 94.50,93.00 L 94.50,95.00 L 95.00,96.50 L 97.00,96.50 L 99.00,96.50 L 101.00,96.50 L 102.50,96.00 Z"/>
<path d="M 88.50,102.00 L 87.50,101.00 L 87.00,99.50 L 86.00,98.50 L 85.50,97.00 L 84.50,96.00 L 83.50,95.00 L 82.50,94.00 L 82.00,92.50 L 81.00,91.50 L 80.50,90.00 L 79.50,89.00 L 78.50,88.00 L 77.50,87.00 L 77.00,85.50 L 76.00,84.50 L 75.50,86.00 L 75.50,88.00 L 75.50,90.00 L 75.50,92.00 L 75.50,94.00 L 75.50,96.00 L 75.50,98.00 L 75.50,100.00 L 75.50,102.00 Z"/>
<path d="M 51.50,102.00 L 50.50,101.00 L 49.50,100.00 L 48.50,99.00 L 47.50,98.00 L 46.50,97.00 L 46.50,95.00 L 45.50,94.00 L 45.50,92.00 L 45.50,90.00 L 45.50,88.00 L 45.50,86.00 L 44.50,86.00 L 44.00,87.50 L 43.00,88.50 L 42.50,90.00 L 41.50,91.00 L 41.00,92.50 L 40.00,93.50 L 39.50,95.00 L 38.50,96.00 L 37.50,97.00 L 36.00,97.50 L 35.00,96.50 L 34.00,95.50 L 33.50,94.00 L 32.50,93.00 L 31.50,92.00 L 31.00,90.50 L 30.00,89.50 L 29.50,88.00 L 28.50,87.00 L 28.00,85.50 L 27.50,87.00 L 27.50,89.00 L 27.50,91.00 L 27.50,93.00 L 27.50,95.00 L 27.50,97.00 L 27.50,99.00 L 27.50,101.00 Z"/>
</g></svg>